<?xml version="1.0" encoding="utf-8"?>
<!-- Generator: Adobe Illustrator 25.2.0, SVG Export Plug-In . SVG Version: 6.00 Build 0)  -->
<svg version="1.1" id="Illustration" xmlns="http://www.w3.org/2000/svg" xmlns:xlink="http://www.w3.org/1999/xlink" x="0px"
	 y="0px" viewBox="0 0 3710 3710" style="enable-background:new 0 0 3710 3710;" xml:space="preserve">
<style type="text/css">
	.st0{fill:url(#SVGID_1_);}
	.st1{fill:#BDD0FB;}
	.st2{opacity:0.5;fill:#FFFFFF;}
	.st3{fill:#91B3FA;}
	.st4{opacity:0.45;fill:#FFFFFF;}
	.st5{fill:url(#SVGID_2_);}
	.st6{fill:url(#SVGID_3_);}
	.st7{fill:url(#SVGID_4_);}
	.st8{fill:url(#SVGID_5_);}
	.st9{fill:url(#SVGID_6_);}
	.st10{fill:url(#SVGID_7_);}
	.st11{fill:url(#SVGID_8_);}
	.st12{fill:url(#SVGID_9_);}
	.st13{fill:url(#SVGID_10_);}
	.st14{fill:url(#SVGID_11_);}
	.st15{fill:url(#SVGID_12_);}
	.st16{fill:url(#SVGID_13_);}
	.st17{fill:url(#SVGID_14_);}
	.st18{fill:url(#SVGID_15_);}
	.st19{fill:url(#SVGID_16_);}
	.st20{opacity:0.19;fill:#FFFFFF;}
	.st21{fill:url(#SVGID_17_);}
	.st22{fill:#FFFFFF;}
	.st23{fill:url(#SVGID_18_);}
	.st24{fill:url(#SVGID_19_);}
	.st25{opacity:0.24;fill:#91B3FA;}
	.st26{fill:url(#SVGID_20_);}
	.st27{fill:#7D97F4;}
	.st28{clip-path:url(#SVGID_22_);}
	.st29{fill:url(#SVGID_23_);}
	.st30{opacity:0.67;fill:#FFFFFF;}
	.st31{fill:url(#SVGID_24_);}
	.st32{fill:url(#SVGID_25_);}
	.st33{fill:url(#SVGID_26_);}
	.st34{fill:url(#SVGID_27_);}
	.st35{fill:url(#SVGID_28_);}
	.st36{opacity:0.88;}
	.st37{fill:url(#SVGID_29_);}
	.st38{fill:url(#SVGID_30_);}
	.st39{fill:url(#SVGID_31_);}
	.st40{fill:url(#SVGID_32_);}
	.st41{fill:url(#SVGID_33_);}
	.st42{fill:url(#SVGID_34_);}
	.st43{fill:url(#SVGID_35_);}
	.st44{fill:url(#SVGID_36_);}
	.st45{fill:url(#SVGID_37_);}
	.st46{fill:url(#SVGID_38_);}
	.st47{fill:url(#SVGID_39_);}
	.st48{fill:url(#SVGID_40_);}
	.st49{fill:url(#SVGID_41_);}
	.st50{fill:url(#SVGID_42_);}
	.st51{fill:url(#SVGID_43_);}
	.st52{fill:url(#SVGID_44_);}
	.st53{fill:url(#SVGID_45_);}
	.st54{fill:url(#SVGID_46_);}
	.st55{fill:url(#SVGID_47_);}
	.st56{fill:url(#SVGID_48_);}
	.st57{fill:url(#SVGID_49_);}
</style>
<g>
	<linearGradient id="SVGID_1_" gradientUnits="userSpaceOnUse" x1="3500.8425" y1="3675.2939" x2="1535.6138" y2="1583.2767">
		<stop  offset="0" style="stop-color:#DAE3FE"/>
		<stop  offset="1" style="stop-color:#E9EFFD"/>
	</linearGradient>
	<path class="st0" d="M2911.47,2835.38c-72.6,74.74-137.55,118.67-187.29,151.84c-485.04,323.46-1039.48,230.23-1210.91,198.37
		c-276.57-51.41-510.03-87.68-710.61-268.68c-455.79-411.28-433.62-1269.24-85.34-1800.71c41.3-63.02,389.05-577.86,944.7-650.4
		c13.59-1.77,23.73-2.78,32.61-3.72c85.96-9.09,618.62-57.06,1052.95,306.37c62.17,52.02,162.23,145.86,255.01,288.98
		C3341.84,1580.73,3342.92,2391.21,2911.47,2835.38z"/>
	<g>
		<path class="st1" d="M2511.77,2311.98c0,0-32.67-1087.97,251.84-1776.51c19.13-46.29,72.93-47.67,94.8-2.29
			C3004.64,836.65,3367.06,1782.68,2511.77,2311.98z"/>
		<path class="st2" d="M2580.18,2219.66c-1.49,3.09,2.08,6.11,3.9,3.3c67.11-103.57,308.4-584.7,259.23-1376.98
			c-0.16-2.55-3.27-2.56-3.29-0.01C2838.37,1033.73,2815.85,1731.2,2580.18,2219.66z"/>
	</g>
	<g>
		<path class="st3" d="M2776.04,2646.21c0,0-80.18-185.39,19.67-455.86c92.64-250.96,331.77-842.87,327.87-1108.25
			c-0.17-11.76,15.68-15.51,20.68-4.87c53.64,114.14,165.53,410.57,98.12,786.99C3155.45,2349.64,2776.04,2646.21,2776.04,2646.21z"
			/>
		<path class="st4" d="M3150.64,1318c8.32,26.64,13.27,54.24,16.65,81.94c0.44,3.46,0.96,6.92,1.34,10.39l0.96,10.43l1.9,20.87
			l1.03,20.93c0.28,6.98,0.85,13.96,0.69,20.95c0.64,55.88-3.27,111.9-12.1,167.14c-1.64,13.91-4.75,27.56-7.34,41.31
			c-2.81,13.7-4.99,27.55-8.64,41.06l-10.03,40.75c-1.52,6.84-3.76,13.47-5.74,20.18l-6.08,20.08l-6.08,20.08l-3.07,10.03
			l-3.53,9.88l-14.12,39.51c-2.4,6.56-4.6,13.23-7.17,19.7l-7.7,19.44l-15.41,38.88c-21,51.65-42.36,103.15-64.99,154.1
			c-11.12,25.56-22.65,50.93-34.04,76.35l-34.99,75.88c-23.38,50.54-46.82,101.03-68.57,152.16c-5.62,12.72-10.59,25.67-15.79,38.55
			c-2.68,6.41-4.91,12.97-7.3,19.48c-2.32,6.53-4.82,13.02-6.99,19.6c-4.06,13.24-8.62,26.37-11.75,39.86
			c-3.87,13.34-6.04,27.01-8.64,40.63l-0.02,0.09c-0.18,0.92-1.06,1.52-1.98,1.35c-0.88-0.17-1.47-1-1.36-1.88
			c3.47-27.79,9.93-55.12,18.06-81.88c2.02-6.69,4.37-13.27,6.54-19.92c2.24-6.62,4.33-13.3,6.85-19.81
			c4.89-13.07,9.57-26.25,14.88-39.15c20.67-51.86,43.7-102.62,66.24-153.55l33.85-76.34c11.2-25.47,22.56-50.88,33.49-76.46
			c22.13-51.05,43.47-102.42,64.4-153.95l15.34-38.79l7.67-19.4c2.57-6.46,4.79-13.01,7.21-19.51l14.22-39.07l3.56-9.77l3.1-9.92
			l6.14-19.86c17.04-52.76,29.62-106.86,39.39-161.39c10-54.53,15.14-109.95,15.79-165.42c0.31-6.94-0.11-13.86-0.1-20.8
			l-0.27-20.82l-1.14-20.78l-0.58-10.4c-0.26-3.46-0.65-6.91-0.96-10.37c-0.72-6.9-1.22-13.84-2.11-20.72l-2.83-20.64
			c-2.33-13.68-4.53-27.45-8.25-40.86c-0.04-0.11,0.02-0.23,0.13-0.27C3150.48,1317.82,3150.6,1317.89,3150.64,1318z"/>
	</g>
	<g>
		<linearGradient id="SVGID_2_" gradientUnits="userSpaceOnUse" x1="2362.8879" y1="989.4396" x2="2586.3242" y2="989.4396">
			<stop  offset="0" style="stop-color:#09005D"/>
			<stop  offset="1" style="stop-color:#1A0F91"/>
		</linearGradient>
		<path class="st5" d="M2373.04,923.78c0,0,155.73,74.33,213.28,131.32l-223.44-9.91L2373.04,923.78z"/>
		<path class="st3" d="M2358.17,985.08c0,0,115.21,30.68,145.95,40.28c39.64,12.39,94.15,319.63,99.11,443.51
			c4.96,123.89-17.71,562.45-17.71,562.45l-614.11-0.8l-9.91-933.3l230.43-113.98L2358.17,985.08z"/>
		<linearGradient id="SVGID_3_" gradientUnits="userSpaceOnUse" x1="2458.188" y1="1161.6389" x2="2197.3765" y2="1734.0702">
			<stop  offset="0" style="stop-color:#4F52FF"/>
			<stop  offset="1" style="stop-color:#4042E2"/>
		</linearGradient>
		<path class="st6" d="M2286.08,1144.3l106,635.97c1.96,11.79,0.08,23.89-5.36,34.53l-77.69,151.68
			c-7.46,14.56-28.31,14.46-35.63-0.17l-77.1-154.21c-4.48-8.95-6.46-18.95-5.73-28.94l45.97-631.43L2286.08,1144.3z"/>
		<linearGradient id="SVGID_4_" gradientUnits="userSpaceOnUse" x1="2266.7314" y1="1099.1283" x2="2016.0804" y2="1502.2014">
			<stop  offset="0" style="stop-color:#4F52FF"/>
			<stop  offset="1" style="stop-color:#4042E2"/>
		</linearGradient>
		<path class="st7" d="M2216.55,1079.63l-3.9,36.43c-0.59,5.49,0.44,11.04,2.96,15.95l12.44,24.27c4.6,8.98,13.62,14.84,23.7,15.39
			c5.99,0.32,12.91,0.59,19.48,0.57c11.89-0.03,22.49-7.49,26.56-18.67l8.01-22.01c1.69-4.64,2.14-9.65,1.3-14.52l-6.91-40.1
			c-2.4-13.95-14.72-23.98-28.86-23.53l-27.48,0.89C2229.7,1054.76,2218.06,1065.56,2216.55,1079.63z"/>
		<path class="st1" d="M2260.74,1051.95l54.24,150.39c5.81,16.1,28.17,17.16,35.47,1.69l64.48-136.54l-36.39-78.05L2260.74,1051.95z
			"/>
		<path class="st1" d="M2139.89,988.2l111.5,74.33l-39.09,131.49c-5.16,17.35-29.24,18.61-36.18,1.9l-58.52-140.82L2139.89,988.2z"
			/>
		<linearGradient id="SVGID_5_" gradientUnits="userSpaceOnUse" x1="1609.8341" y1="1521.7512" x2="2257.4277" y2="1521.7512">
			<stop  offset="0" style="stop-color:#09005D"/>
			<stop  offset="1" style="stop-color:#1A0F91"/>
		</linearGradient>
		<path class="st8" d="M2090.34,1012.98L1737.48,1166c-80.08,34.73-130.68,114.98-127.5,202.21l24.46,662.31h622.99l-38.25-797.03
			L2090.34,1012.98z"/>
		<linearGradient id="SVGID_6_" gradientUnits="userSpaceOnUse" x1="2052.9546" y1="1296.2653" x2="2543.5464" y2="1885.9661">
			<stop  offset="0" style="stop-color:#09005D"/>
			<stop  offset="1" style="stop-color:#1A0F91"/>
		</linearGradient>
		<path class="st9" d="M2174.58,953.51c0,0-92.5,6.94-159.09,81.13c-4.24,4.73-5.01,11.63-2.06,17.26
			c22.65,43.06,117.71,226.58,140.31,316.22c2.37,9.41-2.33,19.16-11.18,23.15l-21.59,9.75c-22.94,10.36-34.29,36.43-26.23,60.28
			c40.71,120.39,154.73,464.9,162.3,569.23l-25.65-815.48c0,0-74.15-152.51-84.06-172.33
			C2137.41,1022.89,2174.58,953.51,2174.58,953.51z"/>
		<linearGradient id="SVGID_7_" gradientUnits="userSpaceOnUse" x1="1906.0001" y1="1761.6818" x2="2042.9764" y2="1788.1431">
			<stop  offset="0" style="stop-color:#09005D"/>
			<stop  offset="1" style="stop-color:#1A0F91"/>
		</linearGradient>
		<path class="st10" d="M1885.58,2030c-2.63,0-4.82-1.91-4.95-4.36l-28.16-540.82c-0.13-2.52,1.98-4.67,4.71-4.79
			c2.73-0.1,5.06,1.82,5.19,4.35l28.16,540.82c0.13,2.52-1.98,4.67-4.71,4.79C1885.75,2030,1885.66,2030,1885.58,2030z"/>
		
			<linearGradient id="SVGID_8_" gradientUnits="userSpaceOnUse" x1="-3579.95" y1="1521.7512" x2="-2932.3562" y2="1521.7512" gradientTransform="matrix(-1 0 0 1 -613.3589 0)">
			<stop  offset="0" style="stop-color:#09005D"/>
			<stop  offset="1" style="stop-color:#1A0F91"/>
		</linearGradient>
		<path class="st11" d="M2486.09,1012.98L2838.95,1166c80.08,34.73,130.68,114.98,127.5,202.21l-24.46,662.31H2319l38.25-797.03
			L2486.09,1012.98z"/>
		
			<linearGradient id="SVGID_9_" gradientUnits="userSpaceOnUse" x1="-3136.8293" y1="1296.2653" x2="-2646.2378" y2="1885.9661" gradientTransform="matrix(-1 0 0 1 -613.3589 0)">
			<stop  offset="0" style="stop-color:#09005D"/>
			<stop  offset="1" style="stop-color:#1A0F91"/>
		</linearGradient>
		<path class="st12" d="M2401.85,953.51c0,0,92.5,6.94,159.09,81.13c4.24,4.73,5.01,11.63,2.06,17.26
			c-22.65,43.06-117.71,226.58-140.31,316.22c-2.37,9.41,2.33,19.16,11.18,23.15l21.59,9.75c22.94,10.36,34.29,36.43,26.23,60.28
			c-40.71,120.39-154.73,464.9-162.3,569.23l25.65-815.48c0,0,74.15-152.51,84.06-172.33
			C2439.01,1022.89,2401.85,953.51,2401.85,953.51z"/>
		
			<linearGradient id="SVGID_10_" gradientUnits="userSpaceOnUse" x1="-3283.7839" y1="1761.6818" x2="-3146.8076" y2="1788.1431" gradientTransform="matrix(-1 0 0 1 -613.3589 0)">
			<stop  offset="0" style="stop-color:#09005D"/>
			<stop  offset="1" style="stop-color:#1A0F91"/>
		</linearGradient>
		<path class="st13" d="M2690.84,2030c2.63,0,4.82-1.91,4.95-4.36l28.16-540.82c0.13-2.52-1.98-4.67-4.71-4.79
			c-2.73-0.1-5.06,1.82-5.19,4.35l-28.16,540.82c-0.13,2.52,1.98,4.67,4.71,4.79C2690.68,2030,2690.76,2030,2690.84,2030z"/>
		<linearGradient id="SVGID_11_" gradientUnits="userSpaceOnUse" x1="2085.3813" y1="912.6362" x2="2424.8333" y2="912.6362">
			<stop  offset="0" style="stop-color:#FEBBBA"/>
			<stop  offset="1" style="stop-color:#FF928E"/>
		</linearGradient>
		<path class="st14" d="M2085.38,797.42c0,0,4.96,287.42,173.44,289.89c168.49,2.48,166.01-349.36,166.01-349.36L2085.38,797.42z"/>
		<linearGradient id="SVGID_12_" gradientUnits="userSpaceOnUse" x1="2057.5037" y1="870.0839" x2="2440.3228" y2="870.0839">
			<stop  offset="0" style="stop-color:#09005D"/>
			<stop  offset="1" style="stop-color:#1A0F91"/>
		</linearGradient>
		<path class="st15" d="M2064.92,830.46l367.34-15.31c5.16-0.21,9.08,4.59,7.83,9.61l-4.28,17.1c-0.77,3.1-3.38,5.4-6.55,5.8
			l-16.26,2.03l-9.73,45.39c-3.74,17.46-19.17,29.93-37.03,29.93h-53.44c-15.78,0-29.91-9.79-35.46-24.57l-11.37-30.31
			c-2.18-5.82-7.75-9.68-13.96-9.68l0,0c-6.63,0-12.46,4.37-14.32,10.74l-7.75,26.56c-4.71,16.16-19.52,27.26-36.35,27.26h-50.8
			c-16.83,0-31.64-11.11-36.35-27.26l-10.88-37.3h-26.37c-3.49,0-6.55-2.33-7.46-5.7l-3.96-14.53
			C2056.47,835.43,2059.96,830.67,2064.92,830.46z"/>
		<linearGradient id="SVGID_13_" gradientUnits="userSpaceOnUse" x1="2258.1367" y1="866.8807" x2="2253.1812" y2="782.6375">
			<stop  offset="0" style="stop-color:#4F52FF"/>
			<stop  offset="1" style="stop-color:#4042E2"/>
		</linearGradient>
		<path class="st16" d="M2606.06,761.37l-158.92-50.67l-190.79-2.38v-0.09l-3.72,0.05l-3.72-0.05v0.09l-190.79,2.38l-158.92,50.67
			c-6.62,2.11-10.24,9.23-8.04,15.83c0.68,2.04,1.86,3.88,3.47,5.31c14.24,12.64,99.07,64.47,358,62.16
			c271.31,2.31,343.75-49.52,358-62.16c1.61-1.43,2.79-3.27,3.47-5.31C2616.3,770.6,2612.68,763.48,2606.06,761.37z"/>
		<linearGradient id="SVGID_14_" gradientUnits="userSpaceOnUse" x1="2266.9172" y1="426.1472" x2="2253.7024" y2="668.9654">
			<stop  offset="0" style="stop-color:#4F52FF"/>
			<stop  offset="1" style="stop-color:#4042E2"/>
		</linearGradient>
		<path class="st17" d="M2049.75,709.06c8.49-45.92,31.38-148.95,77.35-229.4c10.14-17.75,32.98-23.55,50.26-12.63l41.49,26.2
			c13.42,8.47,30.81,7.1,42.73-3.38l29.52-25.94c16.91-14.86,43.21-10.62,54.52,8.84c31.2,53.64,86.21,155.75,106.52,240.85
			c3.31,13.86-4.84,27.89-18.6,31.59c-52.04,14.02-186.62,39.65-364.44-5.88C2055.7,735.89,2047.24,722.67,2049.75,709.06z"/>
		<g>
			<linearGradient id="SVGID_15_" gradientUnits="userSpaceOnUse" x1="2049.3118" y1="713.7607" x2="2452.8813" y2="713.7607">
				<stop  offset="0" style="stop-color:#09005D"/>
				<stop  offset="1" style="stop-color:#1A0F91"/>
			</linearGradient>
			<path class="st18" d="M2438.1,666.27c-204.14,53.76-337.03,12.72-378.47-3.92c-4.39,18.55-7.63,34.62-9.87,46.7
				c-2.52,13.61,5.95,26.83,19.36,30.27c177.81,45.53,312.4,19.9,364.44,5.88c13.76-3.71,21.91-17.73,18.6-31.59
				C2448.48,698.26,2443.68,682.35,2438.1,666.27z"/>
		</g>
	</g>
	<g>
		<linearGradient id="SVGID_16_" gradientUnits="userSpaceOnUse" x1="2923.5798" y1="624.9698" x2="2313.8906" y2="1492.0839">
			<stop  offset="0" style="stop-color:#4F52FF"/>
			<stop  offset="1" style="stop-color:#4042E2"/>
		</linearGradient>
		<path class="st19" d="M2483.01,1354.8l-440.01,362.59c-18.45,15.21-20.04,42.91-3.45,60.13l2.72,2.83
			c14.68,15.23,38.96,15.6,54.1,0.82l410.12-400.45L2483.01,1354.8z"/>
		
			<ellipse transform="matrix(0.9427 -0.3337 0.3337 0.9427 -228.8196 976.0673)" class="st20" cx="2726.93" cy="1154.13" rx="312.12" ry="306.49"/>
		<linearGradient id="SVGID_17_" gradientUnits="userSpaceOnUse" x1="3040.9634" y1="707.5025" x2="2431.2727" y2="1574.6183">
			<stop  offset="0" style="stop-color:#4F52FF"/>
			<stop  offset="1" style="stop-color:#4042E2"/>
		</linearGradient>
		<path class="st21" d="M2613.14,832.63c-180.82,64-276.46,259.82-213.62,437.38c62.85,177.56,260.38,269.62,441.2,205.62
			c180.82-64,276.46-259.82,213.62-437.38C2991.49,860.69,2793.96,768.63,2613.14,832.63z M2824,1428.4
			c-154.26,54.6-322.77-23.94-376.39-175.41c-53.61-151.48,27.98-318.53,182.24-373.13c154.26-54.6,322.77,23.94,376.39,175.41
			C3059.85,1206.75,2978.26,1373.8,2824,1428.4z"/>
		<path class="st22" d="M2437.73,1299.72c-0.33,0-0.64-0.18-0.8-0.49c-3.65-7.23-7.06-14.71-10.15-22.23
			c-0.19-0.45,0.03-0.98,0.49-1.16c0.45-0.19,0.97,0.03,1.16,0.48c3.07,7.47,6.46,14.91,10.09,22.1c0.22,0.44,0.05,0.97-0.39,1.2
			C2438.01,1299.69,2437.87,1299.72,2437.73,1299.72z M2408.16,1209.02c-0.43,0-0.81-0.31-0.88-0.75
			c-3.59-21.88-4.84-44.22-3.72-66.4c3.19-62.78,24.92-123.04,62.84-174.25c38.82-52.43,92.16-91.76,154.26-113.74
			c58.4-20.67,120.91-24.54,180.78-11.19c0.48,0.11,0.78,0.58,0.67,1.06c-0.11,0.48-0.58,0.78-1.06,0.67
			c-59.54-13.27-121.72-9.42-179.8,11.13c-61.76,21.86-114.81,60.98-153.42,113.12c-37.71,50.93-59.32,110.85-62.49,173.28
			c-1.12,22.05,0.12,44.26,3.69,66.02c0.08,0.48-0.25,0.94-0.73,1.02C2408.26,1209.02,2408.21,1209.02,2408.16,1209.02z"/>
		<path class="st22" d="M2075.27,1779.16c-16.93,0-27.89-5.9-32.59-17.55c-4.78-11.86-1.16-25.72,9.01-34.5l52.27-45.11
			c0.31-0.27,0.79-0.24,1.06,0.08c0.27,0.32,0.24,0.79-0.08,1.06l-52.27,45.11c-9.68,8.36-13.14,21.54-8.6,32.8
			c4.5,11.14,15.11,16.74,31.71,16.61h0.01c0.41,0,0.75,0.33,0.75,0.75c0,0.42-0.33,0.76-0.75,0.76
			C2075.63,1779.16,2075.44,1779.16,2075.27,1779.16z"/>
		<path class="st22" d="M2120.57,1669.41c-0.21,0-0.42-0.09-0.57-0.26c-0.27-0.32-0.24-0.79,0.08-1.06l6.77-5.85
			c0.31-0.27,0.79-0.24,1.06,0.08c0.27,0.32,0.24,0.79-0.08,1.06l-6.77,5.85C2120.92,1669.35,2120.74,1669.41,2120.57,1669.41z"/>
	</g>
	<g>
		<g>
			<linearGradient id="SVGID_18_" gradientUnits="userSpaceOnUse" x1="1616.5896" y1="2957.9038" x2="2179.4802" y2="1269.2274">
				<stop  offset="0" style="stop-color:#09005D"/>
				<stop  offset="1" style="stop-color:#1A0F91"/>
			</linearGradient>
			<path class="st23" d="M3070.02,3019.16c0,24.22-19.83,44.03-44.07,44.03H642.62c-24.24,0-44.07-19.81-44.07-44.03l-19.83-1369.63
				c0-24.22,28.53-71.5,80.82-67.94l2329.25-60.27c30.41-0.79,59.82,10.92,81.36,32.39c21.54,21.47,33.32,50.82,32.6,81.21
				L3070.02,3019.16z"/>
			<linearGradient id="SVGID_19_" gradientUnits="userSpaceOnUse" x1="2730.998" y1="1004.3202" x2="1408.996" y2="2980.5054">
				<stop  offset="0" style="stop-color:#4F52FF"/>
				<stop  offset="1" style="stop-color:#4042E2"/>
			</linearGradient>
			<path class="st24" d="M3026.51,2976.92c0,22.93-18.76,41.7-41.7,41.7H700.09c-22.93,0-41.7-18.76-41.7-41.7l-18.71-1243.37
				c2.2-74.82,67.8-101.71,107.57-100.13l2232.38-59.89c21.37-0.57,42.03,7.66,57.16,22.75c15.13,15.1,23.46,35.75,22.92,57.12
				L3026.51,2976.92z"/>
			<g>
				<path class="st3" d="M679.46,2136.41c-1.85,0-3.36-1.48-3.39-3.34l-5.67-386.2c0.12-25.8,8.07-46.41,23.63-61.31
					c28.31-27.12,72.62-25.76,74.46-25.68l712.9-19.13c0.03,0,0.06,0,0.09,0c1.83,0,3.33,1.46,3.38,3.3
					c0.05,1.87-1.43,3.43-3.3,3.48l-713.09,19.13c-1.98-0.05-43.51-1.35-69.77,23.8c-14.18,13.59-21.43,32.56-21.54,56.39
					l5.67,386.13c0.03,1.87-1.47,3.41-3.34,3.44C679.49,2136.41,679.47,2136.41,679.46,2136.41z"/>
			</g>
			<path class="st25" d="M759.05,2907.95c2.39-102.77,1.5-1012.78-4.4-1091.37c-5.9-78.59,116.51-93.33,304.43-102.18
				c187.93-8.84,1773.54-43.86,1814.36-47.17c91.77-7.44,110.76,129.72,101.58,427.5c-6.9,223.71-18.33,592.25-23.59,761.72
				c-1.57,50.46-42.81,90.5-93.3,90.64c-381.56,1.05-1843.98,5.24-1941.33,8.14C804.78,2958.56,758.1,2948.69,759.05,2907.95z"/>
		</g>
		<linearGradient id="SVGID_20_" gradientUnits="userSpaceOnUse" x1="1902.2799" y1="1889.2534" x2="1881.8379" y2="2441.1858">
			<stop  offset="0" style="stop-color:#09005D"/>
			<stop  offset="1" style="stop-color:#1A0F91"/>
		</linearGradient>
		<path class="st26" d="M3255.86,3133.1H461.02c-4.13,0-7.51-3.38-7.51-7.51v-105.33c0-4.13,3.38-7.51,7.51-7.51h2794.84
			c4.13,0,7.51,3.38,7.51,7.51v105.33C3263.36,3129.72,3259.99,3133.1,3255.86,3133.1z"/>
	</g>
	<g>
		<g>
			<path class="st27" d="M1743.17,1295.36L963.51,1907.2c15.14,6.92,32.3,10.49,50.4,9.59l1477.4-72.81
				c25.41-1.25,48.28-11.1,65.59-26.48l-579.99-515.8C1913.94,1245.71,1810.04,1242.89,1743.17,1295.36z"/>
		</g>
		<path class="st1" d="M2461.57,3007.47H1039.33c-57.42,0-103.97-46.55-103.97-103.97v-926.1c0-55.17,43.1-100.74,98.18-103.81
			l1477.12-82.33c61.84-3.45,112.97,47.61,109.6,109.46l-54.88,1008.43C2562.38,2964.3,2516.79,3007.47,2461.57,3007.47z"/>
		<g>
			<path class="st27" d="M1783.65,2448.66l777.44-647.47c-15.17-7.23-32.33-10.92-50.44-9.91l-1477.12,82.33
				c-25.4,1.42-48.24,11.88-65.49,28.14l581.85,541.12C1613.06,2501.61,1716.98,2504.19,1783.65,2448.66z"/>
		</g>
		<g>
			<defs>
				<path id="SVGID_21_" d="M1783.65,2448.66l752.57-626.76c11.73-9.77,5.81-28.77-9.37-30.28c-5.29-0.53-65-710.67-70.49-710.36
					l-1400.45,130c-17.6,0.98-56.34,668.65-70.48,677.25c-9.61,5.84-10.75,19.4-2.51,27.07l566.98,527.3
					C1613.06,2501.61,1716.98,2504.19,1783.65,2448.66z"/>
			</defs>
			<clipPath id="SVGID_22_">
				<use xlink:href="#SVGID_21_"  style="overflow:visible;"/>
			</clipPath>
			<g class="st28">
				<linearGradient id="SVGID_23_" gradientUnits="userSpaceOnUse" x1="1921.5752" y1="1192.1959" x2="1554.6477" y2="2893.3992">
					<stop  offset="0" style="stop-color:#FF928E"/>
					<stop  offset="1" style="stop-color:#FE7062"/>
				</linearGradient>
				<path class="st29" d="M2305.97,2652.6H1184.21V1378.16c0-48.77,38.05-89.07,86.74-91.88l937.69-54.04
					c52.82-3.04,97.33,38.97,97.33,91.88V2652.6z"/>
				<path class="st30" d="M2267.59,2652.6H1222.6V1465.38c0-45.43,35.44-82.98,80.8-85.59l873.52-50.34
					c49.21-2.84,90.67,36.3,90.67,85.59V2652.6z"/>
				<g>
					<g>
						<linearGradient id="SVGID_24_" gradientUnits="userSpaceOnUse" x1="1997.5225" y1="361.1378" x2="1997.5225" y2="867.0331">
							<stop  offset="0" style="stop-color:#E1473D"/>
							<stop  offset="1" style="stop-color:#E9605A"/>
						</linearGradient>
						<path class="st31" d="M2074.84,1974.67c-21.81-14.87-51.53-9.85-68.14,10.44l0,0c-5.19,6.34-14.64,7.25-21.12,2.03
							l-50.56-40.79c-0.93,23.98-13.33,40.02-37.13,47.93l48.51,38.75c7.05,5.63,8.18,15.8,2.52,22.71l0,0
							c-17.81,21.77-14.25,53.72,7.91,71.22l0,0c22.06,17.42,54.12,13.85,71.66-7.85l0,0c12.92-15.99,14.36-37.41,5.47-54.55
							c18.71,5.02,39.35-0.91,52.16-16.76l0,0C2104.34,2025.27,2099.58,1991.54,2074.84,1974.67z"/>
						<linearGradient id="SVGID_25_" gradientUnits="userSpaceOnUse" x1="1485.7195" y1="361.1369" x2="1485.7195" y2="867.0328">
							<stop  offset="0" style="stop-color:#E1473D"/>
							<stop  offset="1" style="stop-color:#E9605A"/>
						</linearGradient>
						<path class="st32" d="M1404.15,1690.68c24.81,16.5,58.17,11.98,76.59-8.98l0,0c5.73-6.52,16.17-7.17,23.31-1.46l53.79,42.96
							c8.56-19.55,20.48-37.2,35.19-52.21l-46.32-37.36c-7.66-6.18-8.92-16.86-2.8-23.85l0,0c19.19-21.85,15.3-55.34-8.74-74.94
							c-24.16-19.7-59.6-18.03-79.11,3.89l0,0c-14.46,16.25-16.02,38.99-5.97,57.7c-21.1-6.28-44.51-0.99-59.11,15.4l0,0
							C1370.11,1635.27,1375.74,1671.78,1404.15,1690.68z"/>
						<linearGradient id="SVGID_26_" gradientUnits="userSpaceOnUse" x1="1488.0107" y1="361.1382" x2="1488.0107" y2="867.0341">
							<stop  offset="0" style="stop-color:#E1473D"/>
							<stop  offset="1" style="stop-color:#E9605A"/>
						</linearGradient>
						<path class="st33" d="M1600.08,1985.53c-19.65-11.44-29.38-32.71-24.2-55.57c0.55-2.35,0.9-4.62,1.05-6.92l-75.04,53.76
							c-7.23,5.18-17.64,3.78-23.25-3.14l-0.81-1c-19.09-23.52-54.75-28.4-79.67-10.75l0,0c-25.03,17.73-29.61,51.35-10.18,74.94
							l0,0c14.31,17.37,37.59,24.33,58.73,19.59c-10.32,17.9-9.13,40.64,5.04,57.84l0,0c19.1,23.2,54.4,27.41,78.81,9.55l0,0
							c24.3-17.78,28.74-50.82,9.96-73.95l0,0c-5.99-7.38-4.58-17.92,3.16-23.52L1600.08,1985.53z"/>
						<linearGradient id="SVGID_27_" gradientUnits="userSpaceOnUse" x1="2007.5769" y1="361.1369" x2="2007.5769" y2="867.0317">
							<stop  offset="0" style="stop-color:#E1473D"/>
							<stop  offset="1" style="stop-color:#E9605A"/>
						</linearGradient>
						<path class="st34" d="M1914.69,1680.63c15.45,15.65,27.39,32.97,35.32,51.19l38.21-27.64c6.59-4.76,16.02-3.17,21.08,3.56l0,0
							c16.82,22.35,47.96,28.99,70.16,13.98c23.2-15.69,27.85-47.86,10.63-71.05l0,0c-12.49-16.83-33.03-24.26-51.86-20.58
							c9.26-16.55,8.26-38.15-4.35-55.13c-17.11-23.05-49.16-28.96-71.61-13.06l0,0c-22.54,15.97-26.74,47.77-9.35,70.89l0,0
							c5.53,7.35,4.2,17.46-2.98,22.61L1914.69,1680.63z"/>
					</g>
					<linearGradient id="SVGID_28_" gradientUnits="userSpaceOnUse" x1="1753.0552" y1="361.1372" x2="1753.0552" y2="867.0332">
						<stop  offset="0" style="stop-color:#E1473D"/>
						<stop  offset="1" style="stop-color:#E9605A"/>
					</linearGradient>
					<path class="st35" d="M1855.49,1667.91c-69.92-41.09-141.14-42.36-209.92-2.06c-70.45,41.28-94.96,133.06-54.8,205.75
						c11.77,21.31,18.55,41.22,13.23,64.65c-3.11,13.72,3.56,24.73,17.59,29.01c12.5,3.8,25.72,5.79,38.71,7.1
						c22.54,2.27,28.63,9.14,24.53,30.05c-0.54,2.74-1.31,5.44-2.13,8.11c-4.14,13.63,1.06,22.09,14.81,27.37
						c36.04,13.85,72.39,15.1,108.5,4.78c31.11-8.89,34.48-14.95,25.6-40.45c-0.45-1.29-0.46-2.72-0.63-4.1
						c-1.88-15.91,3.06-22.15,19.26-23.9c9.78-1.05,19.74-0.98,29.31-2.75c24.25-4.5,31.29-14.37,27.8-38.32
						c-2.14-14.71-3.73-29.05,5.03-42.33c17.13-25.98,21.5-55.44,22.15-101.13C1936.74,1744.24,1908.44,1699.04,1855.49,1667.91z
						 M1709.13,1911.7c-11.09,4-23.22,5.52-34.92,8.17c-21.77-1.38-35.69-9.76-39.41-24.9c-4.75-19.34,3.42-38.06,22.03-45.34
						c10.96-4.29,23.23-6.49,35.13-7.49c22.06-1.85,35.57,7.22,40.02,24.8C1737.42,1888.43,1730,1904.19,1709.13,1911.7z
						 M1773.69,1977.2l-27.96-0.18c-11.58-0.08-19.34-11.76-14.52-21.87l16.75-35.13c4.41-9.26,18.08-9.08,22.62,0.27l17.17,35.34
						C1792.68,1965.77,1785.18,1977.28,1773.69,1977.2z M1878.16,1899.07c-3.62,14.5-17.03,22.15-43.12,21.27
						c-5.34-1.27-16.24-2.83-26.39-6.51c-22.28-8.07-30.6-24.49-25.08-46.6c3.11-12.45,10.79-21.95,23.91-21.56
						c16.2,0.47,33.1,2.35,48.24,7.65C1874.69,1859.96,1882.9,1880.09,1878.16,1899.07z"/>
				</g>
			</g>
		</g>
	</g>
	<g>
		<g class="st36">
			<g>
				<path class="st3" d="M564.72,1162.1c-1.6,0-3.03-1.14-3.33-2.78c-0.82-4.47-1.57-8.96-2.25-13.46c-0.28-1.85,1-3.58,2.84-3.86
					c1.85-0.29,3.58,0.99,3.86,2.84c0.67,4.44,1.41,8.85,2.21,13.25c0.34,1.84-0.88,3.61-2.72,3.94
					C565.13,1162.09,564.92,1162.1,564.72,1162.1z"/>
				<path class="st3" d="M558.19,1105.36c-1.8,0-3.29-1.41-3.38-3.23c-0.32-6.77-0.49-13.64-0.49-20.42c0-2.21,0.02-4.42,0.05-6.63
					c0.03-1.87,1.62-3.4,3.44-3.34c1.87,0.03,3.36,1.57,3.34,3.44c-0.03,2.18-0.05,4.36-0.05,6.53c0,6.67,0.16,13.43,0.48,20.09
					c0.09,1.87-1.35,3.46-3.22,3.55C558.3,1105.36,558.25,1105.36,558.19,1105.36z M560.65,1035.01c-0.13,0-0.26-0.01-0.4-0.02
					c-1.86-0.22-3.19-1.9-2.97-3.76c0.96-8.15,2.16-16.4,3.58-24.49l0.4-2.27c0.33-1.84,2.07-3.08,3.94-2.73
					c1.84,0.33,3.06,2.1,2.73,3.94l-0.4,2.23c-1.39,7.97-2.58,16.08-3.52,24.11C563.81,1033.74,562.35,1035.01,560.65,1035.01z
					 M574.47,965.99c-0.31,0-0.62-0.04-0.94-0.13c-1.8-0.51-2.84-2.39-2.33-4.19c2.47-8.64,5.25-17.31,8.25-25.76
					c0.63-1.76,2.57-2.68,4.33-2.06c1.76,0.63,2.68,2.56,2.06,4.33c-2.96,8.32-5.69,16.85-8.12,25.35
					C577.3,965.02,575.94,965.99,574.47,965.99z M599.31,900.14c-0.49,0-0.98-0.1-1.45-0.33c-1.69-0.8-2.41-2.82-1.61-4.51
					c3.85-8.11,8.02-16.22,12.39-24.09c0.91-1.64,2.97-2.22,4.6-1.32c1.63,0.91,2.23,2.97,1.32,4.61
					c-4.3,7.75-8.4,15.73-12.19,23.71C601.8,899.43,600.58,900.14,599.31,900.14z M634.69,839.24c-0.67,0-1.34-0.2-1.94-0.61
					c-1.53-1.07-1.91-3.18-0.84-4.72c5.15-7.38,10.59-14.68,16.17-21.71c1.17-1.46,3.29-1.71,4.76-0.54
					c1.47,1.16,1.71,3.29,0.55,4.76c-5.5,6.92-10.86,14.11-15.92,21.37C636.81,838.73,635.76,839.24,634.69,839.24z M679.58,784.99
					c-0.85,0-1.71-0.32-2.37-0.96c-1.34-1.31-1.37-3.45-0.06-4.79c6.28-6.44,12.84-12.75,19.5-18.77c1.39-1.26,3.53-1.15,4.79,0.24
					c1.25,1.39,1.14,3.53-0.24,4.78c-6.55,5.92-13.01,12.13-19.19,18.47C681.34,784.64,680.46,784.99,679.58,784.99z M732.7,738.79
					c-1.04,0-2.07-0.48-2.73-1.38c-1.11-1.51-0.78-3.63,0.72-4.74c7.24-5.33,14.74-10.49,22.28-15.34c1.57-1.01,3.67-0.56,4.68,1.02
					c1.01,1.57,0.56,3.67-1.02,4.68c-7.43,4.78-14.81,9.86-21.93,15.1C734.1,738.58,733.39,738.79,732.7,738.79z M1221.37,724.72
					c-0.64,0-1.27-0.18-1.85-0.55c-7.41-4.83-15.07-9.48-22.76-13.83c-1.63-0.92-2.2-2.99-1.28-4.62c0.92-1.63,2.99-2.2,4.61-1.28
					c7.82,4.42,15.6,9.15,23.12,14.05c1.57,1.02,2.01,3.12,0.99,4.69C1223.56,724.18,1222.48,724.72,1221.37,724.72z M792.61,701.85
					c-1.23,0-2.42-0.67-3.02-1.85c-0.85-1.67-0.19-3.71,1.48-4.55c7.98-4.06,16.21-7.94,24.47-11.51c1.73-0.75,3.71,0.05,4.46,1.76
					c0.74,1.72-0.05,3.71-1.76,4.45c-8.13,3.52-16.23,7.33-24.08,11.33C793.65,701.73,793.13,701.85,792.61,701.85z M1159.42,691.29
					c-0.45,0-0.91-0.09-1.35-0.29c-8.09-3.54-16.42-6.87-24.73-9.9c-1.76-0.64-2.67-2.58-2.02-4.34c0.64-1.75,2.59-2.67,4.34-2.02
					c8.45,3.08,16.9,6.46,25.13,10.06c1.71,0.75,2.5,2.75,1.75,4.46C1161.97,690.53,1160.72,691.29,1159.42,691.29z M857.71,675.17
					c-1.44,0-2.77-0.92-3.23-2.37c-0.57-1.78,0.42-3.69,2.21-4.25c8.57-2.72,17.32-5.19,26.01-7.35c1.81-0.46,3.65,0.65,4.1,2.47
					c0.45,1.82-0.65,3.65-2.47,4.1c-8.55,2.13-17.16,4.56-25.6,7.24C858.4,675.12,858.05,675.17,857.71,675.17z M1092.81,668.49
					c-0.27,0-0.56-0.03-0.83-0.1c-8.57-2.17-17.32-4.1-26.02-5.73c-1.84-0.35-3.05-2.12-2.7-3.96c0.34-1.84,2.12-3.04,3.95-2.7
					c8.83,1.66,17.72,3.62,26.43,5.82c1.81,0.46,2.91,2.3,2.45,4.11C1095.7,667.47,1094.32,668.49,1092.81,668.49z M926.3,659.5
					c-1.66,0-3.11-1.22-3.35-2.91c-0.26-1.85,1.02-3.57,2.87-3.83c8.89-1.27,17.94-2.27,26.89-2.98c1.93-0.14,3.5,1.25,3.65,3.11
					c0.15,1.87-1.25,3.5-3.11,3.64c-8.81,0.69-17.71,1.68-26.46,2.93C926.62,659.49,926.46,659.5,926.3,659.5z M1023.37,656.81
					c-0.1,0-0.2,0-0.29-0.01c-8.83-0.76-17.77-1.25-26.59-1.45c-1.87-0.04-3.35-1.59-3.31-3.46c0.04-1.84,1.55-3.31,3.39-3.31
					c0.03,0,0.05,0,0.08,0c8.96,0.21,18.04,0.7,27.01,1.48c1.86,0.16,3.24,1.8,3.08,3.66
					C1026.59,655.47,1025.11,656.81,1023.37,656.81z"/>
				<path class="st3" d="M1267.21,759.18c-0.78,0-1.57-0.27-2.21-0.82c-3.39-2.92-6.82-5.79-10.31-8.61
					c-1.46-1.18-1.68-3.31-0.5-4.76c1.17-1.46,3.3-1.68,4.76-0.51c3.54,2.86,7.03,5.78,10.48,8.75c1.42,1.22,1.57,3.36,0.35,4.78
					C1269.1,758.78,1268.16,759.18,1267.21,759.18z"/>
			</g>
			<g>
				<path class="st3" d="M1415.58,1056.57c-1.77,0-3.26-1.37-3.38-3.17c-0.29-4.48-0.65-8.94-1.08-13.39
					c-0.18-1.86,1.18-3.52,3.04-3.7c1.86-0.19,3.52,1.18,3.7,3.04c0.44,4.52,0.8,9.06,1.1,13.61c0.12,1.87-1.29,3.48-3.16,3.6
					C1415.73,1056.57,1415.66,1056.57,1415.58,1056.57z"/>
				<path class="st3" d="M996.19,1513.9c-1.84,0-3.35-1.47-3.39-3.32c-0.04-1.87,1.45-3.42,3.32-3.45c8.7-0.18,17.5-0.63,26.17-1.34
					c1.94-0.15,3.5,1.23,3.66,3.1c0.15,1.87-1.24,3.5-3.1,3.65c-8.8,0.72-17.75,1.18-26.58,1.36
					C996.24,1513.9,996.21,1513.9,996.19,1513.9z M953.3,1512.61c-0.09,0-0.18,0-0.27-0.01c-8.79-0.7-17.69-1.69-26.46-2.93
					c-1.85-0.26-3.14-1.98-2.88-3.83c0.26-1.85,1.99-3.15,3.83-2.88c8.63,1.22,17.4,2.2,26.05,2.89c1.87,0.15,3.25,1.78,3.11,3.65
					C956.53,1511.26,955.05,1512.61,953.3,1512.61z M1065.1,1506.88c-1.6,0-3.03-1.14-3.33-2.77c-0.34-1.84,0.88-3.61,2.72-3.95
					c8.55-1.58,17.15-3.45,25.57-5.55c1.81-0.46,3.65,0.65,4.1,2.47c0.46,1.81-0.65,3.65-2.46,4.11
					c-8.55,2.14-17.29,4.03-25.98,5.64C1065.51,1506.87,1065.3,1506.88,1065.1,1506.88z M884.91,1501.59c-0.27,0-0.54-0.03-0.81-0.1
					c-8.58-2.09-17.21-4.48-25.66-7.1c-1.79-0.55-2.79-2.45-2.23-4.24c0.55-1.79,2.44-2.79,4.24-2.23
					c8.32,2.58,16.81,4.93,25.26,6.99c1.82,0.44,2.93,2.28,2.49,4.09C887.82,1500.55,886.43,1501.59,884.91,1501.59z
					 M1131.91,1488.83c-1.39,0-2.69-0.86-3.19-2.24c-0.63-1.76,0.28-3.7,2.04-4.33c8.18-2.94,16.37-6.17,24.36-9.61
					c1.71-0.74,3.71,0.05,4.45,1.77c0.74,1.72-0.06,3.71-1.77,4.45c-8.11,3.49-16.44,6.78-24.75,9.76
					C1132.68,1488.76,1132.29,1488.83,1131.91,1488.83z M819.14,1479.8c-0.44,0-0.89-0.09-1.32-0.27
					c-8.13-3.45-16.26-7.2-24.18-11.15c-1.67-0.84-2.36-2.87-1.52-4.54c0.83-1.67,2.86-2.35,4.54-1.52
					c7.79,3.89,15.8,7.58,23.8,10.97c1.72,0.73,2.53,2.72,1.8,4.44C821.71,1479.02,820.46,1479.8,819.14,1479.8z M1194.98,1460.24
					c-1.19,0-2.35-0.63-2.97-1.74c-0.91-1.64-0.31-3.7,1.32-4.6c7.59-4.21,15.17-8.71,22.52-13.39c1.57-1.01,3.67-0.54,4.68,1.04
					c1,1.58,0.54,3.67-1.04,4.68c-7.46,4.75-15.16,9.33-22.87,13.61C1196.1,1460.1,1195.54,1460.24,1194.98,1460.24z
					 M757.77,1447.66c-0.62,0-1.24-0.17-1.81-0.52c-7.47-4.72-14.89-9.74-22.06-14.92c-1.52-1.09-1.86-3.21-0.76-4.73
					c1.09-1.52,3.21-1.86,4.73-0.76c7.05,5.09,14.35,10.03,21.71,14.68c1.58,1,2.05,3.09,1.06,4.67
					C759.99,1447.1,758.89,1447.66,757.77,1447.66z M1252.67,1421.91c-1.01,0-2-0.44-2.67-1.29c-1.15-1.47-0.9-3.6,0.57-4.76
					c6.83-5.38,13.59-11.04,20.09-16.83c1.39-1.25,3.53-1.12,4.78,0.28c1.24,1.4,1.12,3.54-0.28,4.78
					c-6.6,5.88-13.47,11.63-20.41,17.09C1254.14,1421.68,1253.4,1421.91,1252.67,1421.91z M1303.5,1374.84
					c-0.82,0-1.64-0.3-2.29-0.89c-1.38-1.27-1.47-3.41-0.2-4.79c5.89-6.41,11.66-13.08,17.14-19.84c1.17-1.45,3.31-1.68,4.76-0.5
					c1.45,1.18,1.67,3.31,0.5,4.76c-5.57,6.87-11.43,13.65-17.41,20.15C1305.32,1374.47,1304.41,1374.84,1303.5,1374.84z
					 M1346.11,1320.2c-0.64,0-1.28-0.18-1.86-0.56c-1.56-1.03-2-3.13-0.97-4.69c4.78-7.28,9.39-14.8,13.71-22.36
					c0.93-1.62,2.99-2.19,4.62-1.26c1.62,0.93,2.19,3,1.26,4.62c-4.39,7.68-9.08,15.33-13.93,22.72
					C1348.29,1319.67,1347.21,1320.2,1346.11,1320.2z M1379.33,1259.38c-0.46,0-0.93-0.09-1.37-0.29c-1.71-0.76-2.48-2.76-1.72-4.47
					c3.53-7.92,6.86-16.08,9.9-24.26c0.66-1.75,2.62-2.64,4.36-1.99c1.75,0.65,2.65,2.6,1.99,4.36c-3.1,8.31-6.48,16.6-10.06,24.65
					C1381.87,1258.63,1380.63,1259.38,1379.33,1259.38z M1402.26,1194.02c-0.28,0-0.58-0.03-0.86-0.11
					c-1.81-0.47-2.89-2.33-2.41-4.14c2.2-8.38,4.17-16.98,5.87-25.53c0.36-1.83,2.15-3.03,3.98-2.66c1.84,0.36,3.03,2.15,2.66,3.98
					c-1.72,8.69-3.73,17.42-5.96,25.94C1405.13,1193.01,1403.76,1194.02,1402.26,1194.02z M1414.44,1125.83
					c-0.11,0-0.22-0.01-0.33-0.02c-1.86-0.18-3.22-1.84-3.04-3.7c0.85-8.68,1.44-17.48,1.75-26.15c0.07-1.87,1.63-3.34,3.51-3.26
					c1.87,0.07,3.33,1.64,3.26,3.51c-0.31,8.8-0.91,17.74-1.77,26.56C1417.64,1124.52,1416.16,1125.83,1414.44,1125.83z"/>
				<path class="st3" d="M702.2,1405.84c-0.8,0-1.6-0.28-2.25-0.86c-3.4-3.02-6.75-6.1-10.06-9.22c-1.36-1.29-1.42-3.43-0.13-4.79
					c1.29-1.36,3.43-1.42,4.79-0.13c3.25,3.08,6.55,6.1,9.9,9.08c1.4,1.24,1.52,3.38,0.28,4.78
					C704.06,1405.45,703.13,1405.84,702.2,1405.84z"/>
			</g>
			<g>
				<path class="st3" d="M732.18,1290.47c1.21,1.84,3.44,2.71,5.58,2.17l60.79-15.42c21.22,20.18,45.82,37.12,73.15,49.82
					l7.95,62.17c0.28,2.18,1.91,3.94,4.06,4.39l73.65,15.31c2.15,0.45,4.35-0.52,5.48-2.41l32.06-53.85
					c30.13-0.76,59.44-6.5,86.95-16.56l49.61,38.36c1.74,1.34,4.14,1.44,5.98,0.23l62.9-41.26c1.84-1.21,2.71-3.45,2.17-5.58
					l-15.42-60.79c20.18-21.22,37.12-45.82,49.82-73.15l62.17-7.95c2.18-0.28,3.94-1.91,4.39-4.06l15.31-73.65
					c0.45-2.15-0.52-4.35-2.41-5.48l-53.85-32.06c-0.76-30.13-6.5-59.44-16.55-86.94l38.36-49.61c1.34-1.74,1.44-4.14,0.23-5.98
					l-41.26-62.9c-1.21-1.84-3.45-2.71-5.58-2.17l-60.79,15.42c-21.22-20.18-45.82-37.12-73.15-49.83l-7.95-62.17
					c-0.28-2.18-1.91-3.94-4.06-4.39l-73.65-15.31c-2.15-0.45-4.35,0.52-5.47,2.41l-32.06,53.85c-30.13,0.76-59.44,6.5-86.95,16.55
					l-49.61-38.36c-1.74-1.35-4.14-1.44-5.98-0.23l-62.9,41.26c-1.84,1.21-2.71,3.44-2.17,5.58l15.42,60.79
					c-20.18,21.22-37.12,45.82-49.82,73.15l-62.17,7.95c-2.18,0.28-3.94,1.91-4.39,4.06l-15.31,73.65
					c-0.45,2.15,0.52,4.35,2.41,5.48l53.85,32.06c0.76,30.13,6.5,59.44,16.55,86.95l-38.36,49.61c-1.35,1.74-1.44,4.14-0.23,5.98
					L732.18,1290.47z"/>
				<g>
					<path class="st1" d="M987.66,1149.76c-18.04,0-35.18-6.66-48.55-18.95c-14.14-12.99-22.37-30.7-23.19-49.89
						c-1.68-39.59,29.17-73.17,68.77-74.85c39.55-1.74,73.18,29.17,74.86,68.77c0.81,19.18-5.89,37.53-18.88,51.67
						c-12.99,14.14-30.7,22.37-49.88,23.19C989.74,1149.73,988.7,1149.76,987.66,1149.76z M990.56,1144.61h0.03H990.56z
						 M987.76,1016.16c-0.88,0-1.76,0.02-2.64,0.06c-34,1.44-60.48,30.28-59.04,64.27c0.7,16.47,7.77,31.68,19.91,42.83
						c12.14,11.15,27.94,16.92,44.37,16.21l0,0c16.47-0.7,31.68-7.77,42.83-19.91c11.15-12.14,16.91-27.9,16.21-44.37
						C1047.98,1042.15,1020.6,1016.16,987.76,1016.16z"/>
				</g>
				<path class="st1" d="M989.37,1263.55c-12.74,0-25.58-1.31-38.35-3.96c-4.52-0.94-9-2.05-13.44-3.31
					c-6.21-1.78-12.32-3.87-18.29-6.26c-0.14-0.05-0.27-0.11-0.41-0.16c-1.91-0.77-3.81-1.58-5.69-2.41
					c-1.9-0.84-3.02-2.7-3.02-4.64c0-0.69,0.14-1.39,0.44-2.06c1.13-2.57,4.14-3.72,6.7-2.59c11.41,5.06,23.45,8.92,35.78,11.48
					c4.33,0.9,8.67,1.64,13.01,2.21c25,3.31,50.05,1.25,73.77-5.93c0.19-0.06,0.37-0.11,0.55-0.17c0.01,0,0.01,0,0.02-0.01
					c14.03-4.3,27.59-10.38,40.39-18.2c0.04-0.03,0.08-0.05,0.13-0.08c0.29-0.18,0.59-0.36,0.88-0.55c0.4-0.25,0.8-0.5,1.2-0.75
					c0.3-0.19,0.61-0.39,0.91-0.58c0.6-0.38,1.2-0.77,1.8-1.16c39.41-25.85,66.39-65.49,75.98-111.63
					c2.51-12.08,3.75-24.22,3.75-36.27c0-34-9.87-67.3-28.96-96.39c-25.85-39.41-65.49-66.39-111.63-75.98
					c-46.14-9.6-93.25-0.64-132.66,25.21c-39.41,25.85-66.39,65.49-75.98,111.63c-2.47,11.9-3.7,23.95-3.71,35.98
					c0,19.63,3.26,39.18,9.75,57.8c0.19,0.55,0.28,1.12,0.28,1.67c0,2.1-1.31,4.07-3.41,4.8c-2.64,0.92-5.54-0.48-6.47-3.13
					c-6.86-19.7-10.32-40.38-10.32-61.14c0-12.72,1.31-25.47,3.92-38.05c10.14-48.8,38.68-90.73,80.35-118.06
					c41.67-27.33,91.48-36.81,140.3-26.66c48.8,10.14,90.73,38.68,118.06,80.35c20.18,30.77,30.62,65.98,30.62,101.94
					c0,12.75-1.31,25.59-3.96,38.36c-10.14,48.8-38.68,90.73-80.35,118.06C1060.56,1253.1,1025.34,1263.55,989.37,1263.55z"/>
			</g>
		</g>
		<path class="st3" d="M1342.35,916.31l33.27-11.31c12.75,10.33,27.24,18.7,43.07,24.58l7.2,34.37c0.25,1.21,1.24,2.12,2.46,2.27
			l41.82,5.28c1.22,0.15,2.41-0.48,2.95-1.59l15.51-31.5c16.79-1.76,32.91-6.27,47.83-13.11l29.41,19.22
			c1.03,0.67,2.38,0.62,3.35-0.14l33.3-25.84c0.97-0.76,1.36-2.04,0.96-3.21l-11.31-33.27c10.33-12.75,18.7-27.24,24.58-43.07
			l34.37-7.2c1.21-0.25,2.12-1.24,2.27-2.46l5.28-41.82c0.15-1.22-0.48-2.41-1.59-2.95l-31.5-15.51
			c-1.76-16.79-6.27-32.91-13.11-47.83l19.22-29.41c0.67-1.03,0.62-2.38-0.14-3.35l-25.84-33.3c-0.75-0.97-2.04-1.36-3.21-0.96
			l-33.27,11.31c-12.75-10.33-27.24-18.7-43.07-24.58l-7.2-34.37c-0.25-1.21-1.24-2.12-2.46-2.27l-41.82-5.28
			c-1.22-0.16-2.41,0.48-2.95,1.59l-15.51,31.5c-16.79,1.76-32.91,6.27-47.83,13.11l-29.41-19.22c-1.03-0.67-2.38-0.62-3.35,0.14
			l-33.3,25.84c-0.97,0.75-1.36,2.04-0.96,3.21l11.31,33.27c-10.33,12.75-18.7,27.24-24.58,43.07l-34.37,7.2
			c-1.2,0.25-2.12,1.24-2.27,2.46l-5.28,41.81c-0.15,1.22,0.48,2.41,1.59,2.95l31.5,15.51c1.76,16.79,6.27,32.91,13.11,47.83
			l-19.22,29.41c-0.67,1.03-0.62,2.38,0.14,3.35l25.84,33.3C1339.89,916.32,1341.18,916.7,1342.35,916.31z"/>
		<g>
			<path class="st1" d="M1472.4,827.76c-21.15,0-39.52-15.83-42.16-37.35c-1.38-11.27,1.71-22.4,8.71-31.34
				c6.99-8.94,17.05-14.63,28.32-16.01c11.26-1.38,22.4,1.71,31.34,8.71c8.94,6.99,14.63,17.05,16.01,28.32
				c2.84,23.26-13.77,44.5-37.03,47.35h0C1475.84,827.66,1474.11,827.76,1472.4,827.76z M1476.97,822.4h0.03H1476.97z
				 M1472.5,752.91c-1.33,0-2.66,0.08-3.99,0.24c-8.58,1.05-16.23,5.38-21.55,12.18c-5.32,6.81-7.68,15.28-6.63,23.85
				c2.16,17.7,18.32,30.34,36.03,28.18h0c17.7-2.17,30.34-18.33,28.18-36.03c-1.05-8.58-5.38-16.23-12.18-21.55
				C1486.61,755.29,1479.67,752.91,1472.5,752.91z"/>
		</g>
		<g>
			<path class="st3" d="M1271.6,892.21c-1.23,0-2.41-0.67-3.01-1.83c-2.11-4.08-4.1-8.26-5.93-12.4c-0.75-1.71,0.02-3.71,1.73-4.47
				c1.71-0.75,3.71,0.02,4.47,1.73c1.78,4.02,3.71,8.07,5.76,12.03c0.86,1.66,0.21,3.7-1.46,4.56
				C1272.65,892.08,1272.12,892.21,1271.6,892.21z"/>
			<path class="st3" d="M1252.23,839.22c-1.54,0-2.94-1.06-3.3-2.63c-1.77-7.74-3.15-15.65-4.11-23.52
				c-0.12-0.99-0.24-1.97-0.34-2.96c-0.2-1.86,1.15-3.53,3.01-3.72c1.87-0.16,3.53,1.15,3.72,3.01c0.1,0.95,0.21,1.9,0.33,2.85
				c0.94,7.64,2.28,15.33,3.99,22.84c0.42,1.82-0.72,3.64-2.55,4.06C1252.73,839.19,1252.47,839.22,1252.23,839.22z M1247.22,770.2
				c-0.09,0-0.18,0-0.27-0.01c-1.87-0.15-3.25-1.78-3.11-3.65c0.72-8.9,1.97-17.85,3.74-26.6c0.37-1.84,2.15-3.02,3.99-2.65
				c1.84,0.37,3.02,2.16,2.65,3.99c-1.71,8.5-2.93,17.18-3.63,25.81C1250.45,768.85,1248.97,770.2,1247.22,770.2z M1263.36,702.9
				c-0.43,0-0.87-0.08-1.29-0.26c-1.73-0.71-2.56-2.69-1.85-4.42c3.39-8.25,7.31-16.39,11.64-24.19c0.91-1.64,2.97-2.23,4.6-1.32
				c1.64,0.91,2.23,2.97,1.32,4.6c-4.21,7.58-8.01,15.48-11.3,23.48C1265.95,702.11,1264.69,702.9,1263.36,702.9z M1299.13,643.66
				c-0.76,0-1.53-0.26-2.17-0.79c-1.44-1.2-1.62-3.34-0.43-4.77c5.73-6.85,11.91-13.43,18.38-19.55c1.36-1.28,3.5-1.23,4.79,0.13
				c1.28,1.36,1.23,3.5-0.13,4.79c-6.28,5.95-12.28,12.33-17.84,18.98C1301.06,643.25,1300.1,643.66,1299.13,643.66z
				 M1351.08,597.97c-1.12,0-2.21-0.55-2.86-1.57c-1.01-1.58-0.54-3.67,1.03-4.68c7.54-4.81,15.43-9.21,23.45-13.08
				c1.69-0.82,3.71-0.11,4.52,1.58c0.81,1.69,0.11,3.71-1.58,4.52c-7.78,3.76-15.43,8.02-22.75,12.69
				C1352.34,597.8,1351.7,597.97,1351.08,597.97z M1414.44,570.21c-1.5,0-2.87-1-3.27-2.52c-0.48-1.81,0.6-3.66,2.41-4.14
				c8.59-2.27,17.43-4.06,26.29-5.33c1.85-0.28,3.57,1.02,3.83,2.87c0.26,1.85-1.02,3.57-2.87,3.83c-8.6,1.23-17.18,2.97-25.52,5.18
				C1415.02,570.17,1414.73,570.21,1414.44,570.21z M1509.56,565.67c-0.19,0-0.37-0.01-0.56-0.05c-8.53-1.42-17.25-2.34-25.91-2.74
				c-1.87-0.09-3.31-1.67-3.23-3.54c0.09-1.87,1.53-3.32,3.54-3.23c8.92,0.42,17.91,1.37,26.7,2.83c1.85,0.31,3.09,2.05,2.79,3.89
				C1512.62,564.5,1511.19,565.67,1509.56,565.67z"/>
			<path class="st3" d="M1563.76,581.9c-0.46,0-0.92-0.09-1.37-0.29c-4.07-1.8-8.22-3.49-12.35-5.03c-1.75-0.65-2.64-2.6-1.99-4.36
				c0.66-1.75,2.61-2.65,4.36-1.99c4.25,1.59,8.54,3.33,12.72,5.18c1.71,0.76,2.48,2.76,1.73,4.47
				C1566.3,581.15,1565.06,581.9,1563.76,581.9z"/>
		</g>
		<g>
			<path class="st3" d="M1686.12,715.02c-1.41,0-2.72-0.88-3.21-2.29c-1.44-4.19-3.02-8.39-4.71-12.48
				c-0.71-1.73,0.11-3.71,1.84-4.42c1.72-0.71,3.71,0.11,4.42,1.84c1.74,4.22,3.37,8.54,4.85,12.86c0.61,1.77-0.34,3.7-2.11,4.3
				C1686.86,714.96,1686.49,715.02,1686.12,715.02z"/>
			<path class="st3" d="M1492.31,1013.67c-1.74,0-3.22-1.33-3.37-3.09c-0.17-1.86,1.21-3.51,3.08-3.67
				c2.48-0.22,4.96-0.48,7.46-0.79c6-0.73,12.02-1.72,17.91-2.92c1.83-0.39,3.62,0.81,4,2.64c0.38,1.83-0.8,3.62-2.64,4
				c-6.06,1.24-12.27,2.25-18.44,3.01c-2.56,0.31-5.12,0.58-7.68,0.81C1492.51,1013.67,1492.41,1013.67,1492.31,1013.67z
				 M1450.08,1013.48c-0.11,0-0.22-0.01-0.34-0.02c-8.73-0.86-17.51-2.24-26.09-4.11c-1.83-0.4-2.99-2.2-2.59-4.03
				c0.4-1.83,2.18-2.99,4.03-2.59c8.32,1.81,16.84,3.15,25.32,3.99c1.86,0.18,3.22,1.84,3.04,3.7
				C1453.27,1012.18,1451.8,1013.48,1450.08,1013.48z M1558.46,997.6c-1.33,0-2.6-0.79-3.13-2.1c-0.71-1.73,0.12-3.71,1.85-4.42
				c7.87-3.23,15.64-6.96,23.1-11.09c1.63-0.91,3.7-0.32,4.6,1.32c0.91,1.64,0.31,3.7-1.32,4.6c-7.68,4.26-15.69,8.11-23.81,11.44
				C1559.32,997.51,1558.89,997.6,1558.46,997.6z M1616.77,962.49c-0.97,0-1.94-0.42-2.61-1.22c-1.2-1.44-1-3.57,0.44-4.77
				c6.55-5.44,12.85-11.32,18.73-17.48c1.29-1.35,3.44-1.4,4.79-0.11c1.35,1.29,1.4,3.44,0.11,4.79
				c-6.06,6.35-12.55,12.41-19.29,18.02C1618.3,962.23,1617.53,962.49,1616.77,962.49z M1661.98,911.61c-0.63,0-1.27-0.18-1.84-0.55
				c-1.57-1.02-2.01-3.12-1-4.69c4.64-7.14,8.92-14.63,12.71-22.26c0.83-1.67,2.85-2.36,4.54-1.52c1.67,0.83,2.36,2.87,1.52,4.54
				c-3.91,7.85-8.31,15.57-13.09,22.93C1664.17,911.06,1663.09,911.61,1661.98,911.61z M1690.06,849.59c-0.3,0-0.61-0.04-0.92-0.13
				c-1.8-0.51-2.85-2.38-2.35-4.18c2.31-8.2,4.15-16.63,5.49-25.04c0.29-1.84,1.99-3.1,3.88-2.81c1.85,0.29,3.11,2.03,2.81,3.88
				c-1.38,8.67-3.28,17.36-5.65,25.81C1692.9,848.61,1691.54,849.59,1690.06,849.59z M1698.3,782.01c-1.82,0-3.33-1.45-3.38-3.28
				c-0.21-6.81-0.73-13.72-1.56-20.53c-0.2-1.67-0.43-3.34-0.67-5c-0.27-1.85,1.01-3.57,2.86-3.84c1.84-0.27,3.57,1.01,3.84,2.87
				c0.25,1.71,0.48,3.43,0.69,5.16c0.86,7.02,1.4,14.14,1.61,21.15c0.06,1.87-1.42,3.43-3.28,3.49
				C1698.37,782.01,1698.34,782.01,1698.3,782.01z"/>
			<path class="st3" d="M1383.95,996.53c-0.44,0-0.89-0.09-1.33-0.27c-4.16-1.77-8.36-3.71-12.48-5.77
				c-1.67-0.84-2.36-2.87-1.52-4.54c0.83-1.67,2.86-2.36,4.54-1.52c4,2,8.07,3.88,12.11,5.6c1.72,0.73,2.52,2.72,1.79,4.44
				C1386.52,995.76,1385.27,996.53,1383.95,996.53z"/>
		</g>
		<path class="st1" d="M1473.3,891.45c-4.51,0-9.04-0.28-13.59-0.86c0,0,0,0,0,0c-7.56-0.96-15-2.71-22.12-5.21
			c-2.09-0.73-3.4-2.69-3.4-4.79c0-0.56,0.09-1.13,0.29-1.69c0.93-2.65,3.84-4.04,6.48-3.11c6.44,2.26,13.18,3.85,20.03,4.72
			c0.46,0.06,0.93,0.11,1.4,0.17c15.49,1.73,30.85-0.25,45.04-5.67c8.54-3.26,16.66-7.76,24.13-13.44c0.25-0.19,0.5-0.39,0.75-0.58
			c20.39-15.82,33.4-38.63,36.63-64.24c0.52-4.11,0.78-8.22,0.78-12.3c0-21.32-7.02-41.91-20.3-59.03
			c-15.82-20.39-38.63-33.4-64.24-36.63c-52.91-6.67-101.29,30.9-107.96,83.76c-0.51,4.04-0.76,8.09-0.76,12.13
			c0,13.34,2.75,26.56,8.14,38.8c0.29,0.66,0.43,1.36,0.43,2.04c0,1.95-1.13,3.82-3.03,4.66c-2.58,1.14-5.57-0.04-6.7-2.6
			c-5.95-13.53-9-28.14-9-42.89c0-4.46,0.28-8.94,0.84-13.4c7.37-58.42,60.93-99.95,119.31-92.57c28.3,3.57,53.51,17.95,70.99,40.48
			c14.68,18.92,22.43,41.68,22.43,65.23c0,4.51-0.28,9.05-0.86,13.59c-3.57,28.3-17.95,53.51-40.48,70.99
			C1519.62,883.69,1496.86,891.45,1473.3,891.45z"/>
	</g>
	<g>
		<linearGradient id="SVGID_29_" gradientUnits="userSpaceOnUse" x1="2285.5269" y1="2482.2515" x2="2321.7913" y2="2864.2363">
			<stop  offset="0" style="stop-color:#4F52FF"/>
			<stop  offset="1" style="stop-color:#4042E2"/>
		</linearGradient>
		<path class="st37" d="M2194.78,2722.86h-30.55c-0.86,0-1.55-0.69-1.55-1.55v-131.18c0-53.52,39.95-98.62,93.08-105.07l67.44-8.2
			c38.05-4.62,76.4,12.02,98.83,44.87c12.21,17.89,18.05,39.38,18.05,61.04v52.97c0,0.86-0.69,1.55-1.55,1.55h-30.55
			c-0.86,0-1.55-0.69-1.55-1.55v-53.79c0-12.08-2.53-24.15-8.26-34.78c-14.31-26.54-42.73-40.33-70.91-36.91l-67.44,8.2
			c-36.24,4.4-63.49,35.16-63.49,71.67v131.18C2196.33,2722.17,2195.64,2722.86,2194.78,2722.86z"/>
		<linearGradient id="SVGID_30_" gradientUnits="userSpaceOnUse" x1="2274.9705" y1="2670.8625" x2="2368.7573" y2="3119.408">
			<stop  offset="0" style="stop-color:#4F52FF"/>
			<stop  offset="1" style="stop-color:#4042E2"/>
		</linearGradient>
		<path class="st38" d="M2152.73,2692.75l294.98-16.34c11.98-0.66,22.06,8.87,22.06,20.87v233.69c0,11.54-9.36,20.9-20.9,20.9
			h-287.9c-11.28,0-20.52-8.95-20.89-20.22l-7.09-217.35C2132.63,2702.95,2141.39,2693.38,2152.73,2692.75z"/>
		<path class="st3" d="M2349.47,2884.93l-17.85-51.33c-2.15-6.17-0.68-13.07,3.91-17.72c9.15-9.27,14.6-22.2,13.96-36.4
			c-1.14-25.04-21.59-45.34-46.64-46.3c-27.72-1.07-50.52,21.09-50.52,48.57c0,15.25,7.02,28.85,18.01,37.75
			c5.7,4.62,8.04,12.22,5.63,19.14l-16.1,46.28c-3.92,11.26,4.44,23.01,16.36,23.01h56.9
			C2345.03,2907.94,2353.39,2896.19,2349.47,2884.93z"/>
	</g>
	<g>
		<g>
			
				<linearGradient id="SVGID_31_" gradientUnits="userSpaceOnUse" x1="-556.5908" y1="3202.488" x2="-445.9715" y2="3202.488" gradientTransform="matrix(1 0 0 1 1290.1023 0)">
				<stop  offset="0" style="stop-color:#09005D"/>
				<stop  offset="1" style="stop-color:#1A0F91"/>
			</linearGradient>
			<path class="st39" d="M844.13,3241.88c0.01-0.82-0.04-1.66-0.25-2.5c-12.46-49.4-74.3-80.16-74.3-80.16l-24.5,1.92
				c-14.09,43.54-12.28,70.24-10.02,82.13c0.06,0.33,0.16,0.65,0.25,0.97C755.53,3246.05,797.13,3247.23,844.13,3241.88z"/>
			
				<linearGradient id="SVGID_32_" gradientUnits="userSpaceOnUse" x1="-476.883" y1="2681.7229" x2="-493.0629" y2="3068.2468" gradientTransform="matrix(1 0 0 1 1290.1023 0)">
				<stop  offset="0" style="stop-color:#53D8FF"/>
				<stop  offset="1" style="stop-color:#3840F7"/>
			</linearGradient>
			<path class="st40" d="M735.31,3244.24c1.09,3.97,4.02,7.06,7.78,7.85c28.75,6.05,74.46,1.18,93.64-1.33
				c4.23-0.55,7.33-4.47,7.4-8.89C797.13,3247.23,755.53,3246.05,735.31,3244.24z"/>
			
				<linearGradient id="SVGID_33_" gradientUnits="userSpaceOnUse" x1="-525.8286" y1="3076.5527" x2="-546.9589" y2="3260.9631" gradientTransform="matrix(1 0 0 1 1290.1023 0)">
				<stop  offset="0" style="stop-color:#FEBBBA"/>
				<stop  offset="1" style="stop-color:#FF928E"/>
			</linearGradient>
			<path class="st41" d="M735.22,3124.64l10.38,49.96c0.76,3.66,3.57,6.4,6.98,6.72c4.17,0.39,10.11,0.62,16.08-0.26
				c5.35-0.79,9.08-6.23,8.13-12.07l-7.21-44.36H735.22z"/>
			
				<linearGradient id="SVGID_34_" gradientUnits="userSpaceOnUse" x1="-285.1628" y1="2689.7485" x2="-301.3427" y2="3076.2734" gradientTransform="matrix(1 0 0 1 1290.1023 0)">
				<stop  offset="0" style="stop-color:#53D8FF"/>
				<stop  offset="1" style="stop-color:#3840F7"/>
			</linearGradient>
			<path class="st42" d="M950.25,3243.61c-27.06-0.76-41.06-3.94-48.3-6.9c-0.02,2.69,0,5.43,0.09,8.27
				c0.09,3.03,2.34,5.45,5.1,5.43l148.59-0.96c4.74-0.03,7.51-5.53,5.46-9.88C1041.71,3241.18,992.09,3244.78,950.25,3243.61z"/>
			
				<linearGradient id="SVGID_35_" gradientUnits="userSpaceOnUse" x1="-388.1469" y1="3205.2998" x2="-228.9119" y2="3205.2998" gradientTransform="matrix(1 0 0 1 1290.1023 0)">
				<stop  offset="0" style="stop-color:#09005D"/>
				<stop  offset="1" style="stop-color:#1A0F91"/>
			</linearGradient>
			<path class="st43" d="M1061.19,3239.57c-0.18-0.38-0.33-0.76-0.59-1.12c-13.12-18.34-46.55-54.85-112.59-70.68l-31.68-1
				c0,0-14.11,24.52-14.37,69.94c7.24,2.96,21.23,6.14,48.3,6.9C992.09,3244.78,1041.71,3241.18,1061.19,3239.57z"/>
			
				<linearGradient id="SVGID_36_" gradientUnits="userSpaceOnUse" x1="-250.1913" y1="3020.5686" x2="-271.3218" y2="3204.9817" gradientTransform="matrix(0.998 -0.0629 0.0629 0.998 993.2088 65.7657)">
				<stop  offset="0" style="stop-color:#FEBBBA"/>
				<stop  offset="1" style="stop-color:#FF928E"/>
			</linearGradient>
			<path class="st44" d="M909.04,3120.22c0.5,2.33,7.09,37.88,9.65,51.67c0.61,3.28,3.16,5.68,6.2,5.85
				c5.42,0.3,14.17,0.34,21.7-1.7c4.06-1.1,6.79-5.24,6.5-9.83l-3.55-56.23L909.04,3120.22z"/>
			<linearGradient id="SVGID_37_" gradientUnits="userSpaceOnUse" x1="817.4211" y1="2795.8269" x2="1217.1062" y2="1894.8417">
				<stop  offset="0" style="stop-color:#09005D"/>
				<stop  offset="1" style="stop-color:#1A0F91"/>
			</linearGradient>
			<path class="st45" d="M897.15,2439.96c0,0,31.46,323.36,62.92,679.75c0.59,6.64-4.7,12.41-11.22,13.79
				c-9.61,2.02-23.73,4.43-35.42,4.1c-6.24-0.17-11.46-4.8-12.51-10.96c-10.71-62.84-87.17-400.07-107.24-474.29
				c0,0-23.05,315.28-15.68,478.85c0.18,4.07-2.79,7.6-6.84,8.06c-6.13,0.71-15.95,1.25-28.44-0.08c-4.74-0.5-8.57-4.09-9.24-8.81
				c-7.63-53.18-51.56-369.73-49.69-597.76c0.11-12.86,15.09-118.51,15.09-118.51L897.15,2439.96z"/>
		</g>
		<g>
			<g>
				<linearGradient id="SVGID_38_" gradientUnits="userSpaceOnUse" x1="1462.8154" y1="1487.2289" x2="1212.1658" y2="1805.6219">
					<stop  offset="0" style="stop-color:#FF928E"/>
					<stop  offset="1" style="stop-color:#FE7062"/>
				</linearGradient>
				<path class="st46" d="M1064.33,2070.92c-6.25,44.43-12.84,54.63-17.96,54.9c-16.31,0.84-13.02-99.32-72.66-149.99
					c-37.67-32-89.13-34.64-129.5-30.91c18.84,67.56,37.67,135.12,56.51,202.67c8.23,20.18,44.09,101.82,125.24,126.6
					c16.52,5.04,41.11,12.55,63.98,2.72c45.14-19.4,66.31-98.91,46.13-198.47C1126.57,2074.92,1113.43,2071.17,1064.33,2070.92z"/>
				<linearGradient id="SVGID_39_" gradientUnits="userSpaceOnUse" x1="1110.1478" y1="1871.8643" x2="1049.1791" y2="2285.0984">
					<stop  offset="0" style="stop-color:#FEBBBA"/>
					<stop  offset="1" style="stop-color:#FF928E"/>
				</linearGradient>
				<path class="st47" d="M1049.95,1897.67l7.47,42.22c12,51.64,13.14,94.68,6.91,131.03c10.31,0.43,21.13,1.15,32.4,2.26
					c13.9,1.37,27.03,3.18,39.32,5.27c-6.49-52.52-41.44-139.73-41.44-139.73C1073.54,1908.29,1071.03,1928.09,1049.95,1897.67z"/>
			</g>
			<linearGradient id="SVGID_40_" gradientUnits="userSpaceOnUse" x1="1083.0508" y1="1867.8665" x2="1022.082" y2="2281.1003">
				<stop  offset="0" style="stop-color:#FEBBBA"/>
				<stop  offset="1" style="stop-color:#FF928E"/>
			</linearGradient>
			<path class="st48" d="M1135.33,1808.7c-8.46-0.22-16.56,3.41-22.02,9.88l-53.27,63.12c0,0-9.7-1.98-10.6-20.55
				c-0.91-18.57-20.63-20.8-20.63-20.8s2.84,25.89,8.26,64.21c3.1,21.91,16.05,37.91,26.58,47.6l30.82-10.61
				c28.27-40.41,45.81-84.94,55.57-132.47L1135.33,1808.7z"/>
		</g>
		<linearGradient id="SVGID_41_" gradientUnits="userSpaceOnUse" x1="1385.9952" y1="1426.755" x2="1135.345" y2="1745.149">
			<stop  offset="0" style="stop-color:#FF928E"/>
			<stop  offset="1" style="stop-color:#FE7062"/>
		</linearGradient>
		<path class="st49" d="M633.29,1980.42c3.55-0.93,27.81-26,31.46-26.69c59.8-11.4,209.06-51.6,308.95,22.1
			c0.25,2.13,0.41,3.83,0.51,5.23c0.97,1.31,2.3,3.52,4.12,7.05c9.43,18.28,20.75,36.05,33.72,52.65c-2.85,2.83-5.22,6.15-6.95,9.85
			c-24,51.42-115,256.77-99.01,382.35c0.83,6.49-3.59,12.46-10.06,13.36c-35.32,4.88-140.52,16.8-194.87-5.64
			c-3.16-1.31-5.19-4.41-5.14-7.83c0.36-25.2-0.71-134.55-40.8-266.36c-1.49-4.91-2.71-9.9-3.69-14.94
			c-0.49,1.01-0.96,2.02-1.44,3.03L633.29,1980.42z"/>
		<linearGradient id="SVGID_42_" gradientUnits="userSpaceOnUse" x1="1200.3823" y1="1280.6317" x2="949.732" y2="1599.0256">
			<stop  offset="0" style="stop-color:#FF928E"/>
			<stop  offset="1" style="stop-color:#FE7062"/>
		</linearGradient>
		<path class="st50" d="M724.55,1942.33c-111.52,8.15-134.82,71.88-211.89,32.92l13.65,119.34c28.58,31.56,71.72,53.05,126.09,61.11
			L724.55,1942.33z"/>
		<linearGradient id="SVGID_43_" gradientUnits="userSpaceOnUse" x1="822.9712" y1="1994.7208" x2="810.9859" y2="1805.3535">
			<stop  offset="0" style="stop-color:#FEBBBA"/>
			<stop  offset="1" style="stop-color:#FF928E"/>
		</linearGradient>
		<path class="st51" d="M800.75,1834.4c-19.11,38.09-27.08,76.89-29.48,113c4.11,1.53,58.95,39.58,95.66,2.75
			c-7.85-25.27-6.55-63.32-4.55-102.35L800.75,1834.4z"/>
		<g>
			<linearGradient id="SVGID_44_" gradientUnits="userSpaceOnUse" x1="1086.438" y1="1756.5457" x2="1418.3802" y2="1685.4149">
				<stop  offset="0" style="stop-color:#FEBBBA"/>
				<stop  offset="1" style="stop-color:#FF928E"/>
			</linearGradient>
			<path class="st52" d="M900.24,1734.26c1.05,1.7,28.46,130.95,28.46,130.95l-74.13,14.08l-44.18-118.65
				C810.38,1760.65,882.65,1705.8,900.24,1734.26z"/>
			
				<linearGradient id="SVGID_45_" gradientUnits="userSpaceOnUse" x1="-5068.1182" y1="-3588.1289" x2="-4887.0439" y2="-3588.1289" gradientTransform="matrix(0.8506 -0.5257 0.5257 0.8506 6999.4585 2240.2207)">
				<stop  offset="0" style="stop-color:#09005D"/>
				<stop  offset="1" style="stop-color:#1A0F91"/>
			</linearGradient>
			<path class="st53" d="M838.69,1771.2c-1.98,2.71-2.6,6.17-1.68,9.41l18.1,63.35c0.28,0.96,0.67,1.87,1.2,2.72
				c2.92,4.67,13.43,18.8,27.59,7.2c12.07-9.89,23.3-18.8,33.36-21.03c5.88-1.3,11.65,2.55,12.88,8.44
				c2.53,12.14,7.13,36.73,8.15,59.15c0.26,5.62-3.91,10.46-9.49,11.15c-14.73,1.82-43.61,4.51-67.79,1.48
				c-3.97-0.5-7.33-3.13-8.77-6.86c-6.34-16.43-24.31-62.4-31.38-74.6c-6.57-11.33-24.01-12.4-32.04-12.26
				c-3.05,0.05-5.96-1.15-8.07-3.34c-6.34-6.58-16.49-21.46,0.73-37.43c4.28-3.97,4.46-10.74,0.58-15.1
				c-6.95-7.82-13.32-20.7-0.06-35.24c13.42-14.72,29.61-12.02,40.01-7.83c4.6,1.86,10.1,0.66,13.11-3.28
				c1.34-1.75,3.39-3,6.54-2.81c5.94,0.37,11.02-3.79,11.42-9.73c0.7-10.18,5.5-22.36,23.21-26.71c32.5-7.97,50.5,24.05,51.06,47.16
				c0.56,23.11-35.16,29.75-55.76,26.94C856.46,1749.9,844.15,1763.72,838.69,1771.2z"/>
			
				<linearGradient id="SVGID_46_" gradientUnits="userSpaceOnUse" x1="-1612.8109" y1="2573.7673" x2="-1941.4078" y2="2733.4595" gradientTransform="matrix(-0.9451 0.3269 0.3269 0.9451 -1753.6804 -92.6297)">
				<stop  offset="0" style="stop-color:#FEBBBA"/>
				<stop  offset="1" style="stop-color:#FF928E"/>
			</linearGradient>
			<path class="st54" d="M831.96,1855.63c0,0-6.9-40.92-23.38-43.89c-16.48-2.97-33.48,9.68-18.34,33.09
				C809.06,1873.96,831.96,1855.63,831.96,1855.63z"/>
		</g>
		<g>
			
				<linearGradient id="SVGID_47_" gradientUnits="userSpaceOnUse" x1="-1970.2123" y1="2748.1963" x2="-1679.6193" y2="2949.6924" gradientTransform="matrix(-0.9999 -0.0105 -0.0105 0.9999 -1116.0708 -1035.2291)">
				<stop  offset="0" style="stop-color:#FEBBBA"/>
				<stop  offset="1" style="stop-color:#FF928E"/>
			</linearGradient>
			<path class="st55" d="M804.77,1708.42c2.87-0.12,6,0.16,9.44,0.88c7.84,1.66,18.28,5.69,15.56,13.22
				c-4.08,11.32-25.27,0.74-36.55,18.99c-9.94,16.08-1.8,33.54-4.85,50.87c-1.48,8.43-6.9,20.95-14.43,25.87
				c-3.37,2.2-29.97,6.41-31.42,1.69c0,0-7.39-23.99-7.39-23.99c-6.65-21.58,18.9-57.54,32.08-72.08
				C777.39,1712.66,791.19,1708.98,804.77,1708.42z"/>
			<g>
				
					<linearGradient id="SVGID_48_" gradientUnits="userSpaceOnUse" x1="-1964.2986" y1="2742.3611" x2="-1661.9998" y2="2951.9741" gradientTransform="matrix(-0.9999 -0.0105 -0.0105 0.9999 -1116.0708 -1035.2291)">
					<stop  offset="0" style="stop-color:#FEBBBA"/>
					<stop  offset="1" style="stop-color:#FF928E"/>
				</linearGradient>
				<path class="st56" d="M779.56,1795.03l-25.44,21.18c-48.79,20.75-84.23,45.2-109.92,71.65c-9.3-17.5-24.36-37.72-48.36-53.5
					c49.18-24.22,85.78-34.29,85.78-34.29C780.87,1760.16,779.56,1795.03,779.56,1795.03z"/>
				<linearGradient id="SVGID_49_" gradientUnits="userSpaceOnUse" x1="494.8732" y1="2112.8345" x2="576.1653" y2="1835.0873">
					<stop  offset="0" style="stop-color:#FF928E"/>
					<stop  offset="1" style="stop-color:#FE7062"/>
				</linearGradient>
				<path class="st57" d="M644.2,1887.86c-80.21,82.6-56.77,40.62-57.41,111.03c-0.24,26.25-23.02,126.48-23.02,126.48
					c-245.29-105.96-40.59-250.6,32.06-291C619.85,1850.14,634.9,1870.36,644.2,1887.86z"/>
			</g>
		</g>
	</g>
</g>
</svg>
