<svg id="visual" viewBox="0 0 1440 300" width="1440" height="300" xmlns="http://www.w3.org/2000/svg" xmlns:xlink="http://www.w3.org/1999/xlink" version="1.1"><rect x="0" y="0" width="1440" height="300" fill="#040109"></rect><path d="M0 204L10.5 204.2C21 204.3 42 204.7 62.8 198C83.7 191.3 104.3 177.7 125.2 176.3C146 175 167 186 187.8 193C208.7 200 229.3 203 250.2 196.7C271 190.3 292 174.7 313 171.2C334 167.7 355 176.3 375.8 176.5C396.7 176.7 417.3 168.3 438.2 172C459 175.7 480 191.3 500.8 193.2C521.7 195 542.3 183 563.2 182.5C584 182 605 193 626 191.5C647 190 668 176 688.8 175.2C709.7 174.3 730.3 186.7 751.2 190.7C772 194.7 793 190.3 814 185.7C835 181 856 176 876.8 177.7C897.7 179.3 918.3 187.7 939.2 190.3C960 193 981 190 1001.8 189.5C1022.7 189 1043.3 191 1064.2 188.3C1085 185.7 1106 178.3 1127 175.5C1148 172.7 1169 174.3 1189.8 177.8C1210.7 181.3 1231.3 186.7 1252.2 191.3C1273 196 1294 200 1314.8 195.3C1335.7 190.7 1356.3 177.3 1377.2 168.7C1398 160 1419 156 1429.5 154L1440 152L1440 301L1429.5 301C1419 301 1398 301 1377.2 301C1356.3 301 1335.7 301 1314.8 301C1294 301 1273 301 1252.2 301C1231.3 301 1210.7 301 1189.8 301C1169 301 1148 301 1127 301C1106 301 1085 301 1064.2 301C1043.3 301 1022.7 301 1001.8 301C981 301 960 301 939.2 301C918.3 301 897.7 301 876.8 301C856 301 835 301 814 301C793 301 772 301 751.2 301C730.3 301 709.7 301 688.8 301C668 301 647 301 626 301C605 301 584 301 563.2 301C542.3 301 521.7 301 500.8 301C480 301 459 301 438.2 301C417.3 301 396.7 301 375.8 301C355 301 334 301 313 301C292 301 271 301 250.2 301C229.3 301 208.7 301 187.8 301C167 301 146 301 125.2 301C104.3 301 83.7 301 62.8 301C42 301 21 301 10.5 301L0 301Z" fill="#ff2975" stroke-linecap="round" stroke-linejoin="miter"></path></svg>